<svg width="20" height="20" viewBox="0 0 20 20" fill="none" xmlns="http://www.w3.org/2000/svg">
<rect x="0.5" y="0.5" width="19" height="19" rx="9.5" fill="white"/>
<rect x="0.5" y="0.5" width="19" height="19" rx="9.5" stroke="#D8DCDF"/>
<path d="M13.3801 12.7934C13.4564 12.8698 13.5001 12.9752 13.5001 13.0843C13.5001 13.1971 13.4564 13.2989 13.3801 13.3789C13.2201 13.5389 12.9546 13.5389 12.7946 13.3789L10.0019 10.5862L7.20915 13.3789C7.04552 13.5389 6.7837 13.5389 6.6237 13.3789C6.5437 13.2989 6.50006 13.1971 6.50006 13.0843C6.50006 12.9752 6.5437 12.8698 6.6237 12.7934L9.41642 10.0007L6.6237 7.20799C6.5437 7.128 6.50006 7.02618 6.50006 6.91345C6.50006 6.80436 6.5437 6.69891 6.6237 6.62254C6.7837 6.45891 7.04552 6.45891 7.20915 6.62254L10.0019 9.41526L12.7946 6.62254C12.951 6.46618 13.2237 6.46618 13.3801 6.62254C13.4564 6.69891 13.5001 6.80436 13.5001 6.91345C13.5001 7.02618 13.4564 7.128 13.3801 7.20799L10.5873 10.0007L13.3801 12.7934Z" fill="#646464"/>
</svg>
